<mxfile host="app.diagrams.net" modified="2023-10-10T14:14:24.487Z" agent="Mozilla/5.0 (Windows NT 10.0; Win64; x64) AppleWebKit/537.36 (KHTML, like Gecko) Chrome/116.0.0.0 Safari/537.36" version="22.0.4" etag="buXn1zhWRq3MqSn9Fswf" type="github">
  <diagram name="Страница — 1" id="VMVxRxrSuvd6hhNSu_wA">
    <mxGraphModel>
      <root>
        <mxCell id="0" />
        <mxCell id="1" parent="0" />
      </root>
    </mxGraphModel>
  </diagram>
</mxfile>
